<?xml version="1.0" encoding="UTF-8" standalone="no"?>
<!-- Created with Inkscape (http://www.inkscape.org/) -->

<svg
   xmlns:dc="http://purl.org/dc/elements/1.1/"
   xmlns:cc="http://creativecommons.org/ns#"
   xmlns:rdf="http://www.w3.org/1999/02/22-rdf-syntax-ns#"
   xmlns:svg="http://www.w3.org/2000/svg"
   xmlns="http://www.w3.org/2000/svg"
   xmlns:xlink="http://www.w3.org/1999/xlink"
   xmlns:sodipodi="http://sodipodi.sourceforge.net/DTD/sodipodi-0.dtd"
   xmlns:inkscape="http://www.inkscape.org/namespaces/inkscape"
   width="32"
   height="32"
   id="svg2"
   version="1.1"
   inkscape:version="0.48.0 r9654"
   sodipodi:docname="i_run.svg">
  <defs
     id="defs4">
    <linearGradient
       id="linearGradient3799">
      <stop
         style="stop-color:#000000;stop-opacity:1;"
         offset="0"
         id="stop3801" />
      <stop
         style="stop-color:#000000;stop-opacity:0.67521369;"
         offset="1"
         id="stop3803" />
    </linearGradient>
    <linearGradient
       id="linearGradient3757">
      <stop
         style="stop-color:#131976;stop-opacity:0.8888889;"
         offset="0"
         id="stop3759" />
      <stop
         style="stop-color:#5974da;stop-opacity:0.95726496;"
         offset="1"
         id="stop3761" />
    </linearGradient>
    <linearGradient
       inkscape:collect="always"
       xlink:href="#linearGradient3799"
       id="linearGradient3805"
       x1="17.130482"
       y1="1050.7703"
       x2="17.309086"
       y2="1021.7747"
       gradientUnits="userSpaceOnUse" />
  </defs>
  <sodipodi:namedview
     id="base"
     pagecolor="#ffffff"
     bordercolor="#666666"
     borderopacity="1.0"
     inkscape:pageopacity="0.0"
     inkscape:pageshadow="2"
     inkscape:zoom="13.174426"
     inkscape:cx="8.0312636"
     inkscape:cy="18.45382"
     inkscape:document-units="px"
     inkscape:current-layer="layer1"
     showgrid="false"
     inkscape:window-width="1216"
     inkscape:window-height="980"
     inkscape:window-x="0"
     inkscape:window-y="0"
     inkscape:window-maximized="1" />
  <metadata
     id="metadata7">
    <rdf:RDF>
      <cc:Work
         rdf:about="">
        <dc:format>image/svg+xml</dc:format>
        <dc:type
           rdf:resource="http://purl.org/dc/dcmitype/StillImage" />
        <dc:title></dc:title>
      </cc:Work>
    </rdf:RDF>
  </metadata>
  <g
     inkscape:label="Layer 1"
     inkscape:groupmode="layer"
     id="layer1"
     transform="translate(0,-1020.3622)">
    <path
       style="fill:url(#linearGradient3805);fill-opacity:1;stroke:none"
       d="m 13.055597,1030.274 c 0,0 -2.96028,-1.2145 -1.745806,-4.1748 1.43821,-4.2743 5.670481,-6.0232 8.854677,-2.8618 1.097702,1.2746 0.353994,3.4982 -0.04974,4.9113 -0.75902,2.6566 -1.593996,3.5674 -1.593996,3.5674 l 5.482208,3.0428 3.17092,-3.0427 c 0,0 3.567517,2.5807 1.366283,2.8843 -0.927901,0.128 -2.692042,3.5707 -4.422529,3.2078 -2.374701,-0.498 -5.369169,-2.3729 -5.369169,-2.3729 l -1.214475,4.3266 c 0,0 6.755514,1.0627 6.907323,2.2772 0.09898,0.7918 -0.498359,4.0362 -0.239333,6.1983 0.138234,1.1538 1.605616,2.6825 1.605616,2.6825 0,0 -7.286845,0.6072 -5.844657,-2.2012 1.442188,-2.8085 0.683142,-4.8579 0.683142,-4.8579 l -5.768752,-0.835 c 0,0 -3.871137,6.0724 -8.045892,6.2242 -4.1747547,0.1518 -8.1217958,-0.759 -2.5807575,-2.8844 5.5410387,-2.1253 3.2638994,0.4555 4.9338017,-2.8843 1.6699018,-3.3398 1.8217108,-2.2772 1.7458058,-3.1881 -0.0759,-0.9108 0.455428,-5.9964 0.455428,-5.9964 0,0 -4.3265639,-1.0627 -5.0097056,3.0361 -0.6831417,4.0989 1.8217112,3.1122 -2.0494252,3.6435 -2.8149378,-6.4916 -0.4965805,-7.5717 2.1660401,-9.2683 1.718573,-1.0951 3.8566417,-0.311 6.4111837,-0.2198 z"
       id="path3029"
       inkscape:connector-curvature="0"
       sodipodi:nodetypes="cccscccsscccsccccscsscscscc" />
  </g>
</svg>
